<?xml version="1.0" encoding="UTF-8" standalone="no"?>
<!-- Created with Inkscape (http://www.inkscape.org/) -->

<svg
   version="1.1"
   id="svg1"
   width="505.89612"
   height="718.08734"
   viewBox="0 0 505.89612 718.08734"
   sodipodi:docname="Bez.svg"
   inkscape:version="1.3.2 (091e20ef0f, 2023-11-25)"
   xmlns:inkscape="http://www.inkscape.org/namespaces/inkscape"
   xmlns:sodipodi="http://sodipodi.sourceforge.net/DTD/sodipodi-0.dtd"
   xmlns="http://www.w3.org/2000/svg"
   xmlns:svg="http://www.w3.org/2000/svg">
  <defs
     id="defs1" />
  <sodipodi:namedview
     id="namedview1"
     pagecolor="#ffffff"
     bordercolor="#000000"
     borderopacity="0.25"
     inkscape:showpageshadow="2"
     inkscape:pageopacity="0.0"
     inkscape:pagecheckerboard="0"
     inkscape:deskcolor="#d1d1d1"
     showgrid="false"
     inkscape:zoom="0.67789672"
     inkscape:cx="342.23503"
     inkscape:cy="360.67441"
     inkscape:window-width="1920"
     inkscape:window-height="1011"
     inkscape:window-x="0"
     inkscape:window-y="0"
     inkscape:window-maximized="1"
     inkscape:current-layer="layer1" />
  <g
     inkscape:groupmode="layer"
     id="layer1"
     inkscape:label="Layer 1"
     transform="translate(-94.78421,-5.7911201)">
    <path
       style="display:inline;fill:#ff0000"
       d="m 395.89388,386.68034 -1.89472,-9.7951 -0.92665,-9.32709 2.17659,-10.59885 c 0,0 4.57048,-9.79777 4.79847,-10.40337 0.22799,-0.6056 8.92099,-9.83651 8.92099,-9.83651 l 11.58161,-5.17251 10.33568,-1.90274 c 0,0 7.14694,0.28276 8.17334,0.51075 1.0264,0.22799 9.56266,3.11883 10.10012,3.23282 0.53747,0.114 8.77672,4.86438 8.77672,4.86438 l 5.72735,5.24243 -1.32697,5.77188 -20.90114,39.89908 -14.89859,3.50178 z"
       id="path5" />
    <path
       style="fill:#000080;stroke-width:0.0817218"
       d="m 410.51721,380.51931 c -0.79747,-0.89428 -1.30594,-1.79871 -1.28625,-2.28794 0.01,-0.24147 0.0768,-0.34308 0.73948,-1.11914 l 0.72881,-0.85357 -0.1965,-0.50013 c -0.24859,-0.63268 -0.35159,-1.33985 -0.25432,-1.74616 0.097,-0.40495 0.52242,-1.13618 0.77847,-1.33788 0.10928,-0.0861 0.35122,-0.25129 0.53762,-0.36715 l 0.33896,-0.21064 -0.0282,-0.45244 c -0.0607,-0.97412 0.20768,-1.86336 0.83298,-2.7609 0.30157,-0.4329 0.33249,-0.52754 0.38841,-1.18838 0.19325,-2.28534 1.29649,-3.79385 2.93326,-4.01078 l 0.5223,-0.0692 0.19097,-0.42329 c 0.14089,-0.31238 0.33259,-0.57605 0.73129,-1.00599 0.4576,-0.49352 0.6064,-0.60971 0.9724,-0.75904 0.61265,-0.25005 1.18169,-0.30287 1.7363,-0.16115 0.45107,0.11524 0.52622,0.16244 1.26999,0.7975 l 0.79054,0.675 1.221,-1.43332 c 1.11749,-1.31208 2.16086,-2.65816 2.5265,-3.26128 0.14479,-0.23888 0.14391,-0.24149 -0.26799,-0.80693 -2.1856,-3.00019 -1.38183,-8.19338 1.85449,-11.98196 0.5939,-0.69526 1.61136,-1.69541 1.73381,-1.70434 0.0307,-0.002 0.0455,0.14977 0.0331,0.33777 -0.0124,0.18801 -10e-4,0.64987 0.0241,1.02638 0.0409,0.60068 0.0743,0.70813 0.27203,0.87701 0.22143,0.18906 0.2276,0.18869 0.35732,-0.0302 0.38105,-0.6431 1.69996,-2.33727 2.53227,-3.25276 0.81656,-0.8981 1.12199,-1.17874 1.58272,-1.45374 0.0643,-0.0383 0.075,0.1479 0.0293,0.50396 -0.12465,0.96887 0.10523,2.30521 0.39266,2.28254 0.0398,-0.003 0.76277,-0.77237 1.60685,-1.7094 1.50986,-1.67607 2.59108,-2.78322 2.97219,-3.04317 0.19153,-0.13056 0.19241,-0.12534 0.0843,0.47429 -0.10752,0.5965 -0.0639,2.57636 0.0566,2.56936 0.12627,-0.008 1.97145,-1.50985 2.76997,-2.25556 0.45497,-0.42494 1.26161,-1.24492 1.79246,-1.82222 l 0.96524,-1.0496 -0.0318,0.48864 c -0.055,0.84388 -0.5594,2.61735 -1.38119,4.85553 -0.83092,2.26309 -1.21456,3.54926 -1.16744,3.9139 0.0264,0.20396 0.0377,0.21461 0.19037,0.17846 0.0893,-0.0212 0.39498,-0.24699 0.6793,-0.50182 0.68341,-0.6125 1.48942,-1.23195 1.54323,-1.18601 0.14895,0.12719 -0.97731,3.00665 -2.23032,5.70219 -0.40094,0.86252 -0.70745,1.58727 -0.68112,1.61059 0.0694,0.0621 1.23478,-0.48747 2.04179,-0.96257 0.38328,-0.22565 0.71348,-0.39635 0.73374,-0.37931 0.068,0.0573 -0.24028,0.97275 -0.55314,1.64199 -0.83562,1.78744 -2.22346,3.82896 -3.43915,5.05901 -0.30428,0.30785 -0.52248,0.57527 -0.51903,0.63608 0.0156,0.27673 0.9931,0.25644 1.80451,-0.0375 l 0.36715,-0.13301 -0.58694,0.77076 c -1.59785,2.09804 -3.56625,3.48501 -5.50039,3.87569 -1.45573,0.29406 -3.30273,-0.10126 -4.71133,-1.00837 -0.29478,-0.18983 -0.3608,-0.20533 -0.39482,-0.0929 -0.34985,1.15481 -1.19549,2.27978 -3.67283,4.88608 l -0.54755,0.57611 0.22576,0.31649 c 0.64067,0.89809 0.678,2.28491 0.12101,4.49456 -0.14122,0.56028 -0.38354,1.35141 -0.53847,1.75809 -0.18298,0.48032 -0.26319,0.8175 -0.22887,0.96227 0.0842,0.35552 0.50328,0.89116 1.88073,2.40404 2.50938,2.75612 2.47847,2.71415 2.39087,3.24563 -0.10742,0.65179 -0.36918,1.35512 -0.73908,1.98587 -0.40064,0.6832 -1.75956,2.20467 -2.6137,2.9263 -0.80045,0.67631 -2.05685,1.25993 -2.3806,1.10581 -0.37335,-0.17771 -1.28828,-1.08576 -2.85044,-2.82885 l -1.69049,-1.88634 -0.58914,0.0411 c -1.10731,0.0773 -2.07182,-0.29243 -2.83871,-1.08816 -0.28536,-0.29621 -0.40574,-0.3825 -0.49474,-0.35507 -0.0646,0.0199 -0.37108,0.33047 -0.68082,0.69011 -0.30985,0.35956 -0.73505,0.80889 -0.94513,0.99832 -0.8976,0.80982 -1.33252,0.94773 -1.99562,0.6328 -0.50054,-0.23772 -1.74974,-1.2311 -2.24126,-1.78221 z m 2.95382,0.90998 c 0.0614,0.0219 0.2293,-0.005 0.37319,-0.0599 0.22442,-0.0853 0.4405,-0.30582 1.52055,-1.55187 0.69215,-0.7991 2.01833,-2.28958 2.94638,-3.31279 1.49957,-1.65313 4.07653,-4.76281 4.06548,-4.90516 -0.002,-0.0272 -0.27822,-0.0571 -0.61351,-0.0666 -0.3353,-0.01 -0.83625,-0.0758 -1.11323,-0.14717 l -0.50358,-0.12981 0.004,0.3458 c 0.0148,1.06652 -0.50335,1.7907 -1.50101,2.09811 -0.40775,0.12565 -0.41115,0.12861 -0.43752,0.38073 -0.0796,0.76237 -0.64817,1.52778 -1.34783,1.81466 -0.47427,0.19446 -1.09791,0.23488 -1.50333,0.0974 -0.15365,-0.0522 -0.29525,-0.0957 -0.31459,-0.097 -0.0194,-10e-4 -0.0466,0.1279 -0.0607,0.28692 -0.0612,0.69464 -0.45031,1.56719 -0.85688,1.92166 -0.46692,0.40709 -1.50808,0.40035 -2.18701,-0.0142 -0.16795,-0.10254 -0.36087,-0.3053 -0.51633,-0.54145 -0.13645,-0.20768 -0.26405,-0.3913 -0.28361,-0.408 -0.0196,-0.0167 -0.22681,0.19353 -0.46051,0.46724 l -0.42492,0.49766 0.15537,0.40577 c 0.0854,0.22319 0.2779,0.55506 0.42769,0.73749 0.26723,0.32553 2.41189,2.10275 2.63099,2.18035 z m -0.53032,-4.03593 c 0.43679,0.0482 0.75155,-0.10908 0.93602,-0.46768 l 0.13954,-0.27118 -0.43508,-0.48125 c -0.54632,-0.60428 -0.65611,-0.61207 -0.64023,-0.0453 0.0107,0.37134 -0.015,0.44277 -0.22356,0.62974 -0.12945,0.11595 -0.29182,0.21503 -0.36093,0.22005 -0.0941,0.006 -0.0736,-0.0194 0.0812,-0.10501 0.28529,-0.15698 0.39174,-0.4093 0.32981,-0.78196 l -0.0524,-0.31537 -0.23636,0.12203 c -0.19533,0.10083 -0.25155,0.16918 -0.32359,0.39383 -0.17757,0.55258 0.16519,1.03357 0.78531,1.10198 z m -0.97475,-1.28221 c 0.14636,-0.32125 0.47819,-0.53033 0.93642,-0.59009 l 0.37708,-0.0492 0.35891,0.40847 c 0.19743,0.22464 0.38433,0.40648 0.41543,0.40401 0.031,-0.002 0.084,-0.19278 0.11763,-0.42294 0.0524,-0.35836 0.0354,-0.43235 -0.11842,-0.51504 -0.0987,-0.0531 -0.46474,-0.3313 -0.81319,-0.61825 -0.61275,-0.50444 -0.6426,-0.54164 -0.90608,-1.12655 l -0.27244,-0.60487 -0.18941,0.14905 c -0.35237,0.27721 -0.60852,0.63859 -0.64164,0.90529 -0.0395,0.31811 0.15465,1.2203 0.397,1.84393 0.0973,0.25049 0.18933,0.45448 0.20438,0.4533 0.0151,-10e-4 0.0756,-0.10793 0.13446,-0.23718 z m 6.17565,3.89976 c 1.19776,0.65507 2.56701,0.46257 3.64283,-0.51215 0.43027,-0.38989 0.47407,-0.41397 0.3875,-0.21337 -0.0538,0.12433 -0.32609,0.5022 -0.60539,0.83955 l -0.50782,0.61339 0.32382,0.34567 c 0.17809,0.19012 1.01112,1.11739 1.85113,2.06065 0.85505,0.96014 1.62751,1.77301 1.75497,1.84677 0.15614,0.0903 0.31586,0.10341 0.5082,0.0416 0.77934,-0.25051 2.30556,-1.5205 3.02696,-2.5188 0.71093,-0.98379 1.21432,-2.21378 1.03793,-2.53608 -0.0538,-0.0983 -0.71597,-0.82782 -1.4716,-1.62134 -1.64073,-1.72297 -2.16539,-2.34501 -2.46809,-2.92616 l -0.22688,-0.43558 -0.46938,0.54146 -0.46936,0.54148 0.24624,-0.56343 c 0.13542,-0.30992 0.33453,-0.83624 0.44241,-1.16968 0.10786,-0.33343 0.32696,-0.95874 0.48687,-1.38958 0.52594,-1.417 0.86854,-3.14385 0.8203,-4.13461 -0.0218,-0.44757 -0.22244,-0.97119 -0.44704,-1.16662 -0.13462,-0.11776 -0.13942,-0.10778 -0.16499,0.34687 -0.0144,0.25724 -0.0532,0.58383 -0.0864,0.72575 -0.0568,0.2434 -0.0597,0.23808 -0.0499,-0.0942 0.005,-0.19372 0.003,-0.56047 -0.005,-0.81499 -0.0152,-0.44585 -0.0268,-0.46988 -0.31641,-0.65748 -0.41179,-0.26678 -1.37534,-0.49703 -2.03701,-0.48685 -0.30183,0.004 -0.56831,0.0313 -0.59217,0.0593 -0.0239,0.028 0.0841,0.21409 0.23999,0.41365 0.29353,0.37589 0.59283,1.04161 0.58769,1.3073 -0.002,0.0838 -0.0503,-0.01 -0.10805,-0.20779 -0.11971,-0.41007 -0.41077,-0.83136 -0.81584,-1.1809 -0.30876,-0.26644 -0.30889,-0.26656 -0.80707,0.18523 -0.16112,0.14612 -0.34675,0.30098 -0.41256,0.34407 -0.0738,0.0483 -0.0875,0.10576 -0.0356,0.15013 0.15629,0.13344 0.5042,1.06194 0.49389,1.3181 -0.0119,0.29615 -0.17357,0.44254 -0.69738,0.63153 -0.36508,0.13172 -1.71453,0.22959 -1.82813,0.13261 -0.0365,-0.0313 0.11456,-0.0422 0.3357,-0.0245 0.4944,0.0395 1.46535,-0.17812 1.79792,-0.40306 0.19353,-0.13095 0.24388,-0.20097 0.234,-0.32605 -0.0109,-0.13869 -0.0559,-0.17194 -0.3478,-0.25681 -0.18441,-0.0536 -0.4519,-0.20021 -0.59446,-0.32571 l -0.25911,-0.22828 -0.53247,0.3647 c -0.97263,0.66615 -1.03703,0.95628 -0.34339,1.54674 0.90403,0.76907 2.75616,0.90013 4.14379,0.29255 0.26354,-0.1154 0.5094,-0.24517 0.54633,-0.28837 0.0401,-0.0468 0.0986,-0.0301 0.1451,0.0416 0.043,0.0661 0.1367,0.20084 0.20858,0.29941 0.0719,0.0986 0.12099,0.19053 0.10917,0.20438 -0.0118,0.0138 -0.22479,0.12729 -0.47322,0.25219 -0.24847,0.12486 -0.46389,0.24126 -0.47876,0.25866 -0.0605,0.0709 0.55808,0.51891 0.79041,0.57229 0.1375,0.0316 0.25147,0.0766 0.25331,0.10008 0.009,0.10437 -0.76037,0.0391 -1.02613,-0.0872 l -0.29448,-0.13999 -1.05472,1.23602 c -0.58012,0.6798 -1.22775,1.47374 -1.43912,1.76437 l -0.38442,0.52828 0.36877,0.24442 c 0.48159,0.31933 0.89217,0.4128 1.61397,0.36747 0.3244,-0.0204 0.57906,-0.0244 0.56591,-0.009 -0.0872,0.10212 -0.97869,0.29161 -1.4312,0.30419 -0.52639,0.0147 -1.28487,-0.1355 -1.46876,-0.29073 -0.0793,-0.067 -0.25627,0.14665 -1.50172,1.81358 l -1.41175,1.88952 0.16387,0.13991 c 0.0901,0.0769 0.33152,0.23164 0.53652,0.34369 z m -3.79789,-6.10173 c 0.20917,-0.24334 0.49299,-0.48646 0.70881,-0.60692 0.2964,-0.16547 0.4073,-0.18229 0.62792,-0.0953 0.2857,0.11262 1.03784,0.7123 1.21296,0.96704 0.10233,0.14895 0.0598,0.5597 -0.0744,0.71636 -0.0365,0.0426 -0.0337,-0.0559 0.006,-0.21889 0.0903,-0.3685 -0.0772,-0.60333 -0.76045,-1.06581 -0.34631,-0.23441 -0.53597,-0.31829 -0.65554,-0.28996 -0.2449,0.0581 -0.29808,0.15426 -0.22447,0.40631 0.0925,0.31682 -0.0611,0.898 -0.28348,1.07302 -0.20654,0.16252 -0.21085,0.15651 0.2802,0.39157 0.62976,0.30146 1.13857,0.27432 1.45833,-0.0778 0.11424,-0.12553 0.11841,-0.12382 0.0675,0.0268 -0.0428,0.12786 0.003,0.11149 0.22664,-0.0807 0.31691,-0.27247 0.51521,-0.59846 0.57971,-0.95554 0.0582,-0.32016 -0.003,-0.41436 -0.39272,-0.60762 -0.48908,-0.24235 -1.46131,-1.19785 -1.99565,-1.96138 -0.37213,-0.53175 -0.69365,-1.09514 -1.30271,-2.28277 -0.10997,-0.21452 -0.7075,0.76655 -0.85557,1.40486 -0.15539,0.66975 -0.1434,0.68636 0.18112,0.25087 0.36431,-0.48889 0.35543,-0.3958 -0.0142,0.14955 -0.242,0.35702 -0.26144,0.43722 -0.21682,0.89805 0.057,0.58929 0.34383,1.36232 0.69576,1.87525 0.36964,0.53872 0.34177,0.53555 0.73061,0.0831 z m 0.36889,0.74534 c 0.18061,-0.12835 0.32504,-0.57316 0.27678,-0.852 -0.033,-0.19103 -0.22086,-0.13123 -0.4576,0.14578 -0.31658,0.37039 -0.35342,0.5235 -0.16479,0.68457 0.13513,0.11536 0.20746,0.11991 0.34561,0.0216 z m 2.02174,-2.9262 c 0.38928,-0.45504 0.73631,-0.67945 1.13409,-0.73342 0.28756,-0.039 0.3632,-0.0129 0.62253,0.21545 0.49089,0.43182 0.62865,0.73393 0.51515,1.12794 -0.0543,0.18854 -0.1454,0.3958 -0.20243,0.46058 -0.0568,0.0649 -0.0385,-0.0664 0.0409,-0.29158 0.16463,-0.466 0.0846,-0.68432 -0.40317,-1.10087 -0.21849,-0.18656 -0.34279,-0.23873 -0.52022,-0.21841 -0.2978,0.0341 -0.31861,0.0633 -0.21025,0.29558 0.13985,0.29972 0.0583,0.64953 -0.22715,0.97375 -0.29212,0.33223 -0.26125,0.3926 0.28164,0.54897 0.82018,0.23619 1.63229,-0.30944 1.69116,-1.13625 0.039,-0.548 -0.11573,-1.00551 -0.45567,-1.34721 -0.38652,-0.3885 -0.59104,-0.84462 -0.53475,-1.19265 0.0364,-0.22496 -0.0144,-0.35341 -0.29803,-0.75427 -0.4352,-0.61507 -0.96314,-1.83394 -1.29469,-2.98914 -0.14241,-0.49624 -0.30285,-0.9178 -0.35651,-0.9368 -0.17001,-0.0602 -0.87806,0.14941 -1.16364,0.34446 -0.37719,0.25763 -0.80228,0.88351 -0.99592,1.46623 -0.29642,0.89224 -0.25964,0.92712 0.2833,0.26852 l 0.48005,-0.58236 -0.3704,0.53679 c -0.23016,0.33342 -0.41915,0.70781 -0.49902,0.98835 -0.12745,0.44761 -0.12507,0.45948 0.27057,1.35217 0.42336,0.95527 0.8867,1.76058 1.40463,2.44139 0.50626,0.66545 0.47267,0.65452 0.80781,0.2628 z m -1.47974,-5.62804 c 0.0413,-0.0533 0.16091,-0.11353 0.26637,-0.13361 0.18861,-0.036 0.18916,-0.0355 0.0344,0.0364 -0.0863,0.0398 -0.20612,0.1 -0.26638,0.13362 -0.0947,0.0528 -0.0994,0.048 -0.0344,-0.0364 z m 1.94682,6.45683 c 0.24775,-0.13455 0.40637,-0.41339 0.40857,-0.71796 0.003,-0.40109 -0.0995,-0.4871 -0.3473,-0.29232 -0.47041,0.37014 -0.60087,0.71198 -0.35177,0.92465 0.10372,0.0885 0.22129,0.123 0.29086,0.0852 z m 2.80645,-4.76962 c 0.53008,-0.37269 1.1196,-0.8232 1.31006,-1.00115 l 0.34627,-0.32352 -0.60948,-1.32275 c -0.33521,-0.72751 -0.55585,-1.24962 -0.49033,-1.16024 0.0655,0.0895 0.21299,0.27007 0.32775,0.40145 l 0.2086,0.23898 0.28996,-0.38051 0.28994,-0.38051 -0.18388,-0.28749 c -0.10116,-0.15808 -0.45437,-0.51842 -0.78496,-0.80071 -0.55612,-0.47483 -0.63017,-0.51678 -0.98967,-0.56084 -0.58948,-0.0722 -1.14061,0.1841 -1.62256,0.75468 -0.20852,0.24751 -0.40973,0.53746 -0.44643,0.64497 -0.0597,0.17487 -0.034,0.16608 0.24363,-0.0835 0.31839,-0.28626 0.99319,-0.68272 1.18954,-0.69899 0.0605,-0.005 -0.0629,0.0752 -0.27459,0.17819 -0.77504,0.37745 -1.36447,1.17057 -1.3713,1.8452 -0.004,0.4379 0.64152,2.24471 1.08303,3.02933 0.38239,0.67955 0.38618,0.67932 1.48425,-0.0927 z m 1.2409,0.85352 c 0.15074,0.0703 0.31099,0.11584 0.35603,0.10137 0.0854,-0.0274 -0.11426,-0.48292 -0.33626,-0.76725 -0.11285,-0.14454 -0.15278,-0.14524 -0.32953,-0.006 -0.11065,0.087 -0.20683,0.19504 -0.21355,0.24021 -0.0166,0.10795 0.18515,0.27449 0.52348,0.43203 z m 1.14457,-2.51728 c 0.0737,-0.0459 0.46924,-0.10008 0.87897,-0.12034 0.73914,-0.0366 1.69877,0.1451 2.18976,0.41473 l 0.2218,0.12175 0.59114,-0.5981 c 0.32513,-0.32897 1.23449,-1.34863 2.02081,-2.26591 1.19849,-1.39871 1.44716,-1.71947 1.53761,-1.98824 l 0.10792,-0.32049 -1.04793,-0.87321 c -1.17671,-0.98048 -2.01878,-1.61282 -2.18133,-1.6379 -0.084,-0.013 -0.3715,0.33327 -1.26166,1.51989 -0.63403,0.8452 -1.77758,2.27984 -2.54115,3.18818 l -1.38828,1.65152 0.30214,0.43147 c 0.39087,0.55821 0.41156,0.57549 0.57011,0.47692 z m 11.4696,-6.55128 c 1.28631,-0.36566 2.4488,-1.10801 3.3045,-2.11018 0.43537,-0.50989 0.40187,-0.63289 -0.18285,-0.67097 -0.47374,-0.0309 -0.96539,-0.13293 -0.97081,-0.2016 -0.002,-0.0262 0.16339,-0.16017 0.36765,-0.29775 0.50528,-0.34024 1.64893,-1.68136 2.04896,-2.403 0.44811,-0.80797 0.43506,-0.87436 -0.0991,-0.50455 -0.80537,0.55749 -1.79114,1.05644 -2.22084,1.12409 -0.22703,0.0357 -0.43454,0.0464 -0.46115,0.0237 -0.0267,-0.0227 0.0189,-0.15803 0.10105,-0.3006 0.23783,-0.4127 0.56898,-1.50496 0.9813,-3.23647 0.21045,-0.88386 0.37165,-1.60504 0.35819,-1.60262 -0.0135,0.002 -0.17083,0.22763 -0.34967,0.50046 -0.17893,0.27276 -0.7607,0.98299 -1.29281,1.57831 -0.76968,0.86084 -1.03351,1.1157 -1.28958,1.24579 -0.42151,0.21407 -0.53489,0.10651 -0.54786,-0.51936 -0.0206,-0.99166 0.17072,-1.9321 0.65686,-3.23027 0.0552,-0.14732 0.046,-0.15138 -0.15923,-0.07 -0.63189,0.25042 -2.27216,2.11881 -2.77149,3.15698 -0.23312,0.48466 -0.25685,0.51426 -0.30782,0.38393 -0.19788,-0.50614 0.0742,-2.11637 0.53232,-3.15096 0.41448,-0.93595 0.41778,-0.90487 -0.0725,-0.68088 -0.84427,0.38571 -1.85035,1.45367 -2.37289,2.51881 -0.12642,0.25765 -0.29134,0.75067 -0.36654,1.09559 l -0.13672,0.62711 -0.20569,-0.38581 c -0.26502,-0.49706 -0.48396,-1.16161 -0.53145,-1.61304 -0.0373,-0.35474 -0.0379,-0.35552 -0.11215,-0.14902 -0.52911,1.47164 -0.76865,4.02411 -0.4808,5.12304 l 0.0752,0.28718 0.22816,-0.49798 c 0.29228,-0.63796 1.00124,-1.49361 1.51972,-1.83417 0.37237,-0.24459 0.84663,-0.39715 0.95279,-0.3065 0.0658,0.0562 -0.0349,0.49126 -0.38558,1.66564 -0.28192,0.94428 -0.35807,1.5163 -0.21783,1.63605 0.26632,0.22738 2.26137,-1.14249 3.10885,-2.13467 l 0.35281,-0.41307 0.0283,0.25586 c 0.0345,0.31229 -0.30771,1.16919 -0.87864,2.20036 -0.23461,0.4238 -0.42646,0.80853 -0.42629,0.85498 8.6e-4,0.2407 1.80717,-0.43542 2.79844,-1.04748 0.9399,-0.58034 0.92374,-0.57852 0.58664,-0.0664 -0.56866,0.8637 -1.88012,2.30889 -2.59404,2.85859 -0.35574,0.27388 -0.70396,0.53365 -0.7738,0.57722 -0.23433,0.1462 1.45695,-0.0733 2.20633,-0.28631 z"
       id="path4" />
    <path
       id="path3"
       style="display:inline;fill:#ffccaa"
       d="m 261.40039,391.92188 c 0,0 -20.21755,9.09003 -20.70703,9.53124 -0.48947,0.44123 -1.04298,2.47907 -1.24219,3.01368 -0.19922,0.53461 5.79492,7.10547 5.79492,7.10547 l 6.26172,3.02929 c 0,0 9.58728,0.75391 10.32227,0.75391 0.73499,0 0.96094,-12.36719 0.96094,-12.36719 z m 185.23242,95.72265 -12.00976,31.80469 0.68945,3.05078 c 0,0 6.78818,5.65036 6.77148,6.13867 -0.0167,0.48831 1.84612,17.64099 1.75782,18.12695 -0.0883,0.48598 18.94922,6.88672 18.94922,6.88672 l 11.38086,2.54297 c -10e-6,0 31.25977,-32.06595 31.35937,-32.64453 0.0996,-0.57857 -2.7205,-20.85433 -3.25977,-20.5664 z" />
    <path
       id="path2"
       style="display:inline;fill:#ff6600"
       d="m 313.44922,20.419922 c -5.4078,0.532909 -11.14741,3.651199 -22.22852,11.363281 l -13.58008,9.451172 -20.8789,25.162109 c -11.48395,13.839717 -21.8954,27.134076 -23.13477,29.542969 -1.41045,2.741402 -4.03911,13.043507 -7.02734,27.537107 -2.62579,12.73568 -5.70413,25.64291 -6.8418,28.6836 -1.13767,3.04068 -2.62955,7.93838 -3.31445,10.88476 -1.24351,5.34938 -1.23812,5.37355 3.27539,16.92774 3.71429,9.50822 6.39561,14.30296 15.04102,26.89648 14.68848,21.39635 22.58715,34.26647 22.08789,35.98633 -0.23392,0.80583 -0.70636,3.05646 -1.05078,5.00195 -1.15227,6.50836 -0.22425,6.29427 -43.07227,9.94141 -16.65493,1.41763 -17.69326,1.63273 -33.11914,6.90234 -13.73386,4.69161 -17.47561,6.43821 -27.18555,12.68945 l -11.25976,7.25 -3.37891,9.19727 c -1.85927,5.05854 -3.38086,10.28034 -3.38086,11.60547 0,1.32513 -1.11797,7.9288 -2.48437,14.67383 l -2.48438,12.26367 -6.98828,9.50976 c -6.49931,8.84438 -7.10288,10.08206 -8.61524,17.69727 -1.39176,7.00798 -1.46598,9.52113 -0.52148,17.43164 1.51936,12.72517 0.48615,22.34931 -3.95312,36.85938 -3.41037,11.14695 -3.71387,13.07295 -3.79297,24 -0.10268,14.18979 2.51839,33.25561 7.07617,51.47656 3.72132,14.87696 4.46736,15.92137 15.49805,21.66015 4.21244,2.19156 8.96588,5.11705 10.5625,6.50196 1.59661,1.38491 5.92706,4.39777 9.62304,6.69531 3.696,2.29753 7.06026,4.72835 7.47657,5.40234 0.41628,0.67401 5.87574,4.69408 12.13085,8.9336 6.25513,4.2395 11.83252,8.26576 12.39649,8.94531 0.56398,0.67955 4.23443,10.53423 8.15625,21.90039 3.92179,11.36615 7.65622,21.50813 8.29883,22.53711 0.64261,1.02898 8.14763,6.14453 16.67578,11.36914 8.52815,5.22462 31.27296,19.4578 50.54492,31.62891 l 35.03906,22.1289 23.36719,9.43946 23.36719,9.43945 17.91406,1.25977 c 23.79068,1.67172 26.13753,1.69715 41.79688,0.46679 8.55531,-0.67219 14.21226,-1.56464 15.57421,-2.45703 1.17623,-0.7707 3.22475,-1.51661 4.55274,-1.6582 1.328,-0.14158 12.48776,-6.79594 24.80078,-14.78711 l 22.38867,-14.5293 20.36524,-21.46289 c 17.94405,-18.91117 21.98908,-23.79502 34.02343,-41.07617 8.03749,-11.54169 14.4417,-21.78548 15.5625,-24.89258 1.68519,-4.67182 1.87879,-7.38247 1.67578,-23.52148 -0.16546,-13.15434 0.1521,-19.85897 1.14063,-24.04688 1.56373,-6.62466 8.12821,-17.33179 18.5957,-30.33203 l 6.6836,-8.30078 4.51562,-17.61914 c 6.38242,-24.90987 8.26071,-36.94476 8.36719,-53.58399 0.0809,-12.64695 -0.18297,-14.99142 -2.82617,-24.99609 l -2.91797,-11.04101 1.02539,-13.91993 1.02734,-13.91992 -4.79883,-13.00781 c -2.63923,-7.1541 -9.57904,-22.55602 -15.41992,-34.22852 l -10.61914,-21.22461 -7,-3.8125 c -5.88845,-3.20784 -10.27985,-4.53716 -27.64062,-8.36914 -11.35198,-2.50565 -31.88183,-6.58204 -45.6211,-9.05859 l -24.98047,-4.50391 -7.30273,-4.92773 -7.30078,-4.92578 -0.68164,-7.27539 c -1.18403,-12.63528 0.21195,-22.40149 5.90429,-41.30469 6.03227,-20.03198 9.90235,-35.65396 9.90235,-39.97266 0,-4.64421 -17.76514,-38.23299 -29.9082,-56.546872 L 404.04297,70.482422 379.38086,54.521484 C 351.62608,36.558192 325.12122,21.716973 318.93164,20.673828 c -1.91421,-0.322607 -3.67982,-0.431543 -5.48242,-0.253906 z m 117.4375,309.224608 c 0,0 7.14547,0.28178 8.17187,0.50977 1.0264,0.22799 9.56411,3.12038 10.10157,3.23437 0.53747,0.114 8.77539,4.86328 8.77539,4.86328 l 5.72851,5.24219 -1.32812,5.77148 -20.90039,39.9004 -14.89844,3.50195 -30.64258,-5.98828 L 394,376.88477 393.07227,367.55859 395.25,356.95898 c 0,0 4.56889,-9.79674 4.79688,-10.40234 0.22798,-0.6056 8.92187,-9.83789 8.92187,-9.83789 l 11.58203,-5.17187 z m -169.48633,62.27735 1.39063,11.0664 c 0,0 -0.22595,12.36719 -0.96094,12.36719 -0.73499,0 -10.32227,-0.75391 -10.32227,-0.75391 l -6.26172,-3.02929 c 0,0 -5.99414,-6.57086 -5.79492,-7.10547 0.19921,-0.53461 0.75272,-2.57245 1.24219,-3.01368 0.48948,-0.44119 20.70703,-9.53125 20.70703,-9.53124 z m 185.23242,95.72265 55.63867,15.33985 c 0.53927,-0.28793 3.35937,19.98783 3.25977,20.5664 -0.0996,0.57858 -31.35938,32.64453 -31.35937,32.64453 l -11.38086,-2.54297 c 0,0 -19.03752,-6.40074 -18.94922,-6.88672 0.0883,-0.48594 -1.77452,-17.63864 -1.75782,-18.12695 0.0167,-0.48831 -6.77148,-6.13867 -6.77148,-6.13867 l -0.68945,-3.05078 z" />
    <path
       id="path1"
       style="fill:#000000"
       d="m 313.44922,20.419922 c -5.4078,0.53291 -11.1474,3.651191 -22.22852,11.363281 l -13.58008,9.451172 -20.8789,25.162109 c -11.48396,13.83973 -21.8954,27.134073 -23.13477,29.542969 -1.41045,2.741405 -4.03911,13.043487 -7.02734,27.537107 -2.62579,12.73569 -5.70413,25.64291 -6.8418,28.6836 -1.13767,3.04069 -2.62955,7.93838 -3.31445,10.88476 -1.24351,5.34938 -1.23812,5.37354 3.27539,16.92774 3.71429,9.50823 6.39561,14.30295 15.04102,26.89648 14.6885,21.39637 22.58715,34.26647 22.08789,35.98633 -0.23392,0.80583 -0.70635,3.05646 -1.05078,5.00195 -1.15227,6.50836 -0.22421,6.29427 -43.07227,9.94141 -16.65495,1.41763 -17.69324,1.63272 -33.11914,6.90234 -13.73387,4.69161 -17.4756,6.4382 -27.18555,12.68945 l -11.25976,7.25 -3.37891,9.19727 c -1.85927,5.05854 -3.38086,10.28034 -3.38086,11.60547 0,1.32513 -1.11796,7.9288 -2.48437,14.67383 l -2.48438,12.26367 -6.98828,9.50976 c -6.49932,8.84438 -7.10288,10.08205 -8.61524,17.69727 -1.39177,7.00799 -1.46598,9.52112 -0.52148,17.43164 1.51936,12.72518 0.48616,22.3493 -3.95312,36.85938 -3.41037,11.14696 -3.71387,13.07294 -3.79297,24 -0.10268,14.18981 2.51839,33.25559 7.07617,51.47656 3.72132,14.87698 4.46735,15.92136 15.49805,21.66015 4.21245,2.19156 8.96588,5.11705 10.5625,6.50196 1.59662,1.38491 5.92705,4.39777 9.62304,6.69531 3.696,2.29753 7.06026,4.72834 7.47657,5.40234 0.41629,0.67401 5.87573,4.69408 12.13085,8.9336 6.25513,4.23951 11.83252,8.26576 12.39649,8.94531 0.56398,0.67955 4.23443,10.53422 8.15625,21.90039 3.9218,11.36616 7.65622,21.50813 8.29883,22.53711 0.64261,1.02898 8.14762,6.14452 16.67578,11.36914 8.52816,5.22462 31.27294,19.45779 50.54492,31.62891 l 35.03906,22.1289 23.36719,9.43946 23.36719,9.43945 17.91406,1.25977 c 23.7907,1.67173 26.13752,1.69715 41.79688,0.46679 8.55532,-0.67219 14.21225,-1.56464 15.57421,-2.45703 1.17623,-0.7707 3.22475,-1.51661 4.55274,-1.6582 1.328,-0.14158 12.48775,-6.79593 24.80078,-14.78711 l 22.38867,-14.5293 20.36524,-21.46289 c 17.94407,-18.91119 21.98906,-23.795 34.02343,-41.07617 8.03749,-11.5417 14.4417,-21.78548 15.5625,-24.89258 1.68519,-4.67183 1.87879,-7.38245 1.67578,-23.52148 -0.16546,-13.15435 0.1521,-19.85897 1.14063,-24.04688 1.56373,-6.62467 8.1282,-17.33178 18.5957,-30.33203 l 6.6836,-8.30078 4.51562,-17.61914 c 6.38243,-24.90989 8.26071,-36.94475 8.36719,-53.58399 0.0809,-12.64697 -0.18296,-14.99141 -2.82617,-24.99609 l -2.91797,-11.04101 1.02539,-13.91993 1.02734,-13.91992 -4.79883,-13.00781 c -2.63924,-7.15411 -9.57904,-22.55601 -15.41992,-34.22852 l -10.61914,-21.22461 -7,-3.8125 c -5.88846,-3.20785 -10.27983,-4.53716 -27.64062,-8.36914 -11.35199,-2.50566 -31.88182,-6.58204 -45.6211,-9.05859 l -24.98047,-4.50391 -7.30273,-4.92773 -7.30078,-4.92578 -0.68164,-7.27539 c -1.18403,-12.63529 0.21194,-22.40147 5.90429,-41.30469 6.03227,-20.032 9.90235,-35.65396 9.90235,-39.97266 0,-4.64422 -17.76512,-38.23297 -29.9082,-56.546872 L 404.04297,70.482422 379.38086,54.521484 c -27.75481,-17.96331 -54.25963,-32.80451 -60.44922,-33.847656 -1.91421,-0.322607 -3.67982,-0.431543 -5.48242,-0.253906 z m 1.1914,6.460937 c 0.8386,0 8.57016,22.492137 9.45313,27.5 0.26553,1.506008 1.10268,4.845049 1.85937,7.419922 1.36055,4.629669 1.34466,4.720329 -1.39453,8.160157 -4.42233,5.553496 -16.83407,17.040898 -30.61718,28.33789 -13.65917,11.195402 -24.1441,21.886732 -27.14063,27.671872 -8.13591,15.7073 -5.386,46.42761 6.89844,77.06836 8.45801,21.09662 12.25167,25.60525 36.36719,43.20117 24.0522,17.54973 33.11625,23.34826 39.37695,25.19336 5.47819,1.6145 5.67784,1.7897 6.7832,5.99414 0.62629,2.38223 1.31986,5.95165 1.54297,7.93165 0.29218,2.59284 0.0411,3.60156 -0.89844,3.60156 -1.69205,0 -5.44783,-2.80861 -3.81054,-2.84961 2.05352,-0.0514 3.46109,-4.28397 2.20507,-6.63086 -1.70576,-3.18726 -6.12319,-2.70876 -9.00585,0.97461 l -2.35938,3.01562 -9.95117,-4.61523 c -5.47243,-2.53803 -11.62451,-6.10406 -13.67188,-7.92383 -7.883,-7.00669 -17.70293,-9.36059 -42.83789,-10.26953 -9.23999,-0.33414 -17.73923,-0.80012 -18.88672,-1.03516 -2.03835,-0.41752 -2.02172,-0.48999 0.67774,-3.18945 1.54796,-1.54796 3.2549,-4.71525 3.88086,-7.20117 l 1.11719,-4.43555 7.32617,5.10156 c 12.4494,8.67201 12.59236,9.03459 -3.33985,-8.46289 -16.31556,-17.91849 -35.38245,-48.95168 -40.60937,-66.09961 -2.07029,-6.79198 -2.66107,-15.86561 -1.13867,-17.46875 1.81915,-1.91563 4.06734,-10.781 6.39843,-25.22461 4.37361,-27.09909 6.79992,-33.914032 16.8086,-47.207027 7.78993,-10.346171 30.09832,-32.690932 42.80664,-42.876953 10.34821,-8.294344 20.78869,-15.681641 22.16015,-15.681641 z m 11.26368,2.095703 c 0.74763,-0.747624 32.21305,18.535805 54.25195,33.248047 18.89931,12.616393 19.87224,13.422152 24.64453,20.38086 5.65319,8.24318 23.96482,39.961171 30.74414,53.253911 l 4.5293,8.88085 -4.4707,14.26954 c -10.17946,32.48164 -13.44108,47.45789 -13.56055,62.26953 -0.0652,8.08172 0.30451,11.43403 1.57617,14.27929 l 1.66211,3.7168 -4.50195,6.30859 c -7.9384,11.12465 -15.35212,19.00045 -22.07032,23.44532 -3.60175,2.38297 -9.34847,6.51575 -12.76953,9.18554 -6.24303,4.87208 -9.06393,5.29789 -7.99414,1.20704 1.14679,-4.38533 -3.67535,-7.73763 -7.38867,-5.13672 -2.36335,1.65535 -2.50247,6.94236 -0.2793,10.62109 0.72699,1.20291 1.06321,2.608 0.7461,3.12109 -0.96742,1.56531 -3.34084,1.03803 -3.36914,-0.74804 -0.0146,-0.924 -0.27487,-4.70244 -0.57618,-8.39844 l -0.54687,-6.7207 3.375,-1.78907 c 1.85621,-0.9836 5.33868,-4.43929 7.73828,-7.67968 11.7897,-15.92069 30.48453,-62.65646 34.67383,-86.67969 1.25501,-7.19685 1.2505,-9.34638 -0.041,-18.86719 C 409.45781,136.35941 404.1627,119.1939 397.22461,108.34961 388.29977,94.400005 370.81613,82.432895 343.2168,71.380859 L 330.7207,66.375 329.97461,59.828125 c -0.40996,-3.601346 -1.6034,-11.905999 -2.65234,-18.455078 -1.04895,-6.54908 -1.68684,-12.127608 -1.41797,-12.396485 z m 99.7207,211.386718 4.52734,3.04492 c 2.61107,1.75712 7.92158,3.93384 12.54688,5.14063 4.4109,1.15085 8.83183,2.41843 9.82226,2.8164 1.36714,0.54934 -2.36739,2.67633 -15.50781,8.83789 -9.51976,4.46383 -17.1738,8.25899 -17.00781,8.43165 0.16598,0.17266 10.66292,-3.11911 23.32617,-7.31446 l 23.02344,-7.6289 21.46289,3.21484 c 26.6455,3.99138 39.26362,6.60261 45.47266,9.40625 3.93385,1.7763 5.70445,3.46864 9.71484,9.28906 13.68685,19.86422 27.44997,48.21719 29.56641,60.90821 l 0.64453,3.86718 -12.85547,-0.375 c -10.77243,-0.3148 -14.15904,-0.0465 -20.88477,1.6543 -4.41489,1.11643 -8.47857,2.52491 -9.03125,3.12891 -0.73871,0.80728 -0.49736,0.91254 0.91407,0.39843 6.41988,-2.33843 25.09353,-1.09766 36.96093,2.45703 l 3.35938,1.00782 0.11523,13.11523 c 0.10017,11.38683 0.41715,13.87638 2.39844,18.87695 2.05451,5.18529 2.26137,7.05187 2.08008,18.71876 -0.11076,7.12799 -0.54113,15.05397 -0.95703,17.61132 l -0.75586,4.64844 -4.09961,-5.04297 c -4.90663,-6.03583 -10.07664,-9.99417 -15.59571,-11.9414 -6.53017,-2.30399 -8.81307,-1.72729 -3.30859,0.83593 6.413,2.98629 12.07343,9.60766 15.96094,18.67188 5.15409,12.01746 4.1905,22.41971 -4.23242,45.68945 -2.6932,7.44042 -5.63997,10.20114 -19.9668,18.70508 -6.57662,3.90368 -13.80698,8.33152 -16.06641,9.83984 -2.25943,1.50832 -4.8512,2.70089 -5.75976,2.65039 -0.90857,-0.0505 -16.55551,-4.08721 -34.77149,-8.97265 -32.61906,-8.74829 -68.6537,-19.61531 -97.99414,-29.55078 l -14.95508,-5.06446 -6.16406,-7.19922 c -8.01508,-9.36259 -17.35162,-18.69956 -20.2168,-20.21679 -1.65446,-0.87611 -1.20708,-0.0432 1.64649,3.06836 3.18837,3.47661 11.08181,14.46413 14.17578,19.73242 0.36981,0.62971 -4.62894,-1.37712 -11.10937,-4.46094 -14.25617,-6.78402 -33.90652,-14.52917 -52.34375,-20.63281 -15.21993,-5.03857 -14.68688,-4.46622 -12.13086,-13.07617 3.28275,-11.058 10.65201,-22.28377 16.61914,-25.31446 3.53237,-1.79407 23.37922,-3.77537 37.99218,-3.79296 11.35985,-0.0137 12.99713,0.20902 18.24219,2.49023 3.16925,1.37838 8.35279,3.17641 11.51953,3.99414 8.94556,2.30996 38.36748,7.32822 42.9375,7.32422 2.25536,-0.002 9.71609,-1.11082 16.58008,-2.46485 17.84251,-3.51972 18.69129,-3.47722 28.78516,1.42969 10.73542,5.2188 19.32335,13.34689 23.60742,22.34571 2.75755,5.79229 2.85691,5.88863 2.32812,2.21484 -0.99097,-6.88476 -6.95465,-17.55036 -13.4414,-24.03711 -3.29936,-3.29937 -5.72469,-6.44189 -5.39063,-6.98242 0.81175,-1.31344 18.42331,1.86107 28.41016,5.12109 24.72528,8.07115 41.35016,22.95515 47.66016,42.66992 2.03265,6.35078 2.33364,4.51407 0.43164,-2.63086 -5.56944,-20.9216 -22.96605,-37.9403 -48.73438,-47.67578 -6.95535,-2.62778 -7.60845,-2.2661 9.78516,-5.4082 6.07199,-1.09689 16.63623,-2.24395 23.47656,-2.55078 19.91136,-0.89313 11.47161,-2.45695 -16.65039,-3.08399 l -24.37109,-0.54296 9.01171,-6.35938 c 11.81404,-8.3361 18.89187,-12.23855 24.02735,-13.24805 l 4.18554,-0.82226 -4.39257,-0.10547 c -5.26011,-0.12598 -14.90168,3.02636 -27.4668,8.97851 -5.08244,2.40758 -9.38452,4.23268 -9.56055,4.05665 -0.36131,-0.36131 6.53592,-20.99429 11.08399,-33.15625 4.24656,-11.35574 12.55284,-28.52589 17.29492,-35.75196 l 4.03711,-6.15234 -3.54688,3.83984 c -9.14304,9.89732 -22.5828,34.32981 -35.51172,64.56055 -6.81657,15.93869 -7.70593,17.51953 -9.85351,17.51953 h -2.35938 l 0.66407,-8.87891 c 1.28792,-17.20501 8.16648,-44.91888 19.25781,-77.59375 2.92246,-8.60952 5.2844,-15.89437 5.25,-16.18945 -0.22495,-1.92859 -17.34502,38.16029 -22.02734,51.58008 -1.60495,4.59985 -3.11628,8.92251 -3.35938,9.60547 -0.30239,0.84952 -2.05149,0.0257 -5.53906,-2.60742 -17.64771,-13.32415 -38.96559,-12.36828 -54.4961,2.44531 -10.05907,9.59473 -14.93161,23.58043 -12.50781,35.90039 0.6421,3.26372 1.39784,6.53504 1.67969,7.26953 1.26325,3.29198 -16.36503,-5.30666 -23.18359,-11.30859 -8.2495,-7.26151 -7.97922,-11.52253 2.20703,-34.9668 3.64523,-8.38971 7.36428,-17.80282 8.26562,-20.91602 2.10733,-7.27863 2.89064,-17.27532 1.74024,-22.2207 l -0.9043,-3.88281 9.54101,-8.11719 c 5.24715,-4.46469 11.30363,-9.63052 13.45899,-11.47851 4.59035,-3.93577 13.8862,-16.17209 18.19336,-23.94727 z m -169.19336,20.58984 c 3.9528,0.0168 9.66305,0.65185 21.08398,1.92188 25.14786,2.79649 33.57437,5.46316 39.49219,12.49609 1.28142,1.52288 7.11602,5.45013 12.9668,8.72657 l 10.63867,5.95703 -3.23047,6.99023 c -7.26309,15.72001 -10.7366,31.09289 -9.04297,40.02344 0.54838,2.8916 2.67748,7.93241 4.91211,11.63086 3.60849,5.97229 3.90615,6.9683 3.51172,11.72461 -0.51757,6.24119 -3.67823,10.90286 -10.19726,15.03711 -4.98195,3.15945 -3.39153,3.84301 1.7539,0.7539 11.85373,-7.11649 14.64314,-17.15656 8.16016,-29.37304 -2.88195,-5.43073 -3.36133,-7.25162 -3.36133,-12.80469 0,-8.3593 2.65711,-16.92631 9.26563,-29.88477 l 5.22461,-10.24609 5.4414,2.4043 c 3.74705,1.65712 6.34822,2.229 8.35547,1.83593 1.60295,-0.31389 4.273,-0.74195 5.93359,-0.95117 1.6606,-0.20922 3.88474,-0.84359 4.94336,-1.41015 1.51515,-0.81088 2.0466,-0.71082 2.5,0.4707 2.01628,5.25434 -0.87272,19.97505 -6.9707,35.51367 -5.68323,14.48178 -7.8125,22.08954 -7.8125,27.91406 0,6.03367 0.13132,6.32831 7.72461,17.18164 6.43549,9.19846 6.28601,9.32028 -5.32227,4.33204 -5.56402,-2.39093 -6.40877,-2.4744 -24.48242,-2.4043 -12.81689,0.0497 -21.56788,0.57112 -27.75,1.65625 -7.0533,1.23805 -12.21107,1.45489 -23.5664,0.98633 l -14.53516,-0.59961 -21.95703,-31.53906 c -12.07569,-17.34572 -22.11317,-31.53711 -22.30664,-31.53711 -0.19347,0 0.043,0.75568 0.52734,1.67968 0.48432,0.924 8.51945,16.09382 17.85547,33.70899 9.33603,17.61517 16.76513,32.57554 16.50781,33.24609 -0.25732,0.67056 -4.71389,2.61481 -9.90234,4.32031 -5.18846,1.7055 -10.23901,3.52659 -11.22461,4.04688 -1.27835,0.67483 -2.15598,0.57523 -3.06055,-0.34766 -2.24143,-2.28685 -21.61568,-39.94386 -35.88672,-69.75 -7.6226,-15.92035 -13.99804,-28.80858 -14.16601,-28.64062 -0.64895,0.64896 19.01562,53.86401 29.50976,79.85937 3.67162,9.09506 6.67578,16.81553 6.67578,17.15625 0,0.34071 -3.13294,-1.4865 -6.96093,-4.06054 -17.86447,-12.01257 -33.9008,-19.252 -48.15821,-21.73829 -4.70311,-0.82014 -8.74913,-1.29383 -8.99023,-1.05273 -0.2411,0.2411 0.8021,0.69752 2.31641,1.01367 7.70123,1.60784 18.96159,5.85853 26.06054,9.83789 9.8781,5.53726 25.16404,16.97994 35.16211,26.32227 l 7.58985,7.09179 -10.95118,-0.89648 c -20.96406,-1.71662 -45.91071,1.74717 -58.91406,8.17969 -7.20392,3.56364 -9.31189,5.46833 -3.13281,2.83008 9.1328,-3.8994 18.94577,-5.1689 35.66211,-4.61329 14.14746,0.47024 30.74883,2.63883 33.96289,4.4375 0.86775,0.48562 -0.7442,1.47448 -4.76758,2.92188 -18.50576,6.65741 -36.00789,19.15532 -47.78711,34.12695 -7.02197,8.92508 -6.74799,9.28019 1.03711,1.34375 8.96703,-9.14132 17.24402,-15.27603 27.71094,-20.53515 16.09343,-8.08618 36.34363,-12.65006 51.83984,-11.6836 20.6754,1.28947 56.93376,13.18069 82.79883,27.1543 l 15.12109,8.16992 0.0566,10.73633 0.0566,10.73438 3.55078,-9.76758 c 1.95324,-5.37242 3.79374,-10.01055 4.08984,-10.30664 0.29609,-0.2961 5.0267,1.08034 10.51172,3.05859 11.76651,4.24374 11.26613,3.36969 11.38867,19.89648 0.0801,10.80844 -2.10706,37.02464 -3.24219,38.86133 -1.59031,2.57319 -17.04545,5.5356 -31.44336,6.02735 l -9.35351,0.31836 2.63281,-2.82227 c 1.44751,-1.55264 6.5074,-5.35178 11.24414,-8.44336 4.73676,-3.09157 8.32584,-5.62109 7.97656,-5.62109 -0.34929,0 -3.79287,1.12605 -7.65234,2.50195 -9.52789,3.3967 -16.49573,7.48489 -21.87305,12.83398 -4.49842,4.47481 -4.50957,4.47864 -16.42187,6.55664 -6.5567,1.14376 -16.02502,2.51085 -21.04102,3.03711 -23.36477,2.45132 -40.15538,0.21705 -64.80078,-8.62304 -8.44799,-3.03023 -18.38408,-6.04609 -22.08008,-6.70117 -3.69599,-0.65509 -7.30232,-1.35914 -8.01367,-1.56446 -0.72757,-0.21 2.71736,-3.60911 7.875,-7.77148 5.04265,-4.06956 9.04048,-7.52983 8.88281,-7.6875 -0.15767,-0.15767 -8.49276,3.39236 -18.52148,7.88672 -16.54049,7.4126 -18.78521,8.16992 -24.17773,8.16992 -7.09546,0 -14.98749,-2.48275 -23.21485,-7.30469 -3.28309,-1.92417 -9.51362,-5.13634 -13.84765,-7.13867 -13.81852,-6.38417 -17.48903,-13.34263 -19.69727,-37.3457 -0.97083,-10.55267 -0.89016,-12.13204 1.04297,-20.38477 2.68625,-11.46791 6.10958,-18.73309 9.91992,-21.05664 2.70523,-1.64965 2.76964,-1.80169 0.76758,-1.80469 -2.986,-0.005 -9.64892,6.88584 -13.15235,13.60352 -1.56256,2.99618 -3.23582,5.20275 -3.71874,4.9043 -0.48292,-0.29847 -0.65867,-4.0572 -0.39063,-8.35352 0.3997,-6.40666 1.08837,-9.01618 3.83203,-14.50586 1.83989,-3.68138 4.07289,-8.91003 4.96094,-11.62109 1.37494,-4.19745 2.45355,-5.51885 7.27148,-8.89844 8.2462,-5.78438 19.43755,-10.81578 25.75586,-11.57813 4.88711,-0.58967 5.17599,-0.74173 2.72266,-1.4375 -4.62296,-1.31107 -16.9421,0.16222 -25.81641,3.08789 l -8.40039,2.76954 v -2.23633 c 0,-1.23085 -0.90141,-6.23097 -2.0039,-11.10938 -2.66021,-11.77111 -2.15444,-18.68335 1.93164,-26.34961 4.52803,-8.49547 8.11514,-12.43269 11.98242,-13.1582 1.82181,-0.34177 6.6903,-2.22356 10.82031,-4.18164 6.95135,-3.29572 8.16084,-3.56131 16.28516,-3.57031 8.41484,-0.009 9.0987,0.15579 16.61523,3.99609 8.65901,4.42401 8.51551,3.18333 -0.32812,-2.82227 -10.75714,-7.30503 -20.92694,-8.96306 -34.0586,-5.55273 l -7.07812,1.83789 0.66601,-5.93359 c 2.56178,-22.82917 5.74339,-30.9184 15.80469,-40.19141 15.48377,-14.27061 31.595,-20.09553 56.24414,-20.33594 l 12.47852,-0.12304 13.91992,4.70312 c 19.49981,6.58757 36.9511,13.25345 43.95898,16.79102 3.27864,1.65505 5.96094,2.78206 5.96094,2.5039 0,-1.07222 -10.90913,-7.39683 -28.24414,-16.37304 l -18.06055,-9.35157 7.07227,-1.93554 c 4.39603,-1.20305 6.59212,-1.80581 10.54492,-1.78907 z m 116.50781,14.74219 c 0.96815,-0.15867 2.02254,10e-4 2.59571,0.57422 0.60059,0.60059 -0.1264,1.08699 -2.04883,1.36914 -1.87411,0.27506 -2.85016,0.0513 -2.63281,-0.60156 0.2349,-0.70561 1.11778,-1.18312 2.08593,-1.3418 z m -20.83984,3.66407 c 0.53616,0 1.22342,0.6494 1.52734,1.4414 0.30396,0.792 0.40348,1.43945 0.22071,1.43945 -0.18278,0 -0.87005,-0.64745 -1.52735,-1.43945 -0.68885,-0.83001 -0.78259,-1.4414 -0.2207,-1.4414 z m 79.73828,52.16796 c 5.72924,-0.0678 11.62109,1.21217 17.2793,4.04297 3.52143,1.76178 7.83706,4.68171 9.58984,6.49024 l 3.1875,3.28906 -10.59375,21.16992 c -6.68352,13.35647 -11.22555,21.35528 -12.30664,21.67188 -0.94244,0.276 -4.27719,0.95818 -7.41016,1.51562 -3.13296,0.55744 -5.72476,0.95271 -5.75976,0.87891 -0.035,-0.0738 -3.30368,-0.46015 -7.26367,-0.85742 -11.49473,-1.15315 -19.75516,-3.5945 -20.9375,-6.18946 -2.46824,-5.41719 -3.38279,-14.00739 -2.1836,-20.51562 3.49366,-18.96075 19.21074,-31.29255 36.39844,-31.4961 z m -154.7793,56.38868 c 8.20575,-0.10614 17.70648,0.9934 17.09766,1.97851 -0.57848,0.936 -2.53064,0.90258 -13.25781,-0.22851 -9.81146,-1.03455 -11.17256,-1.6551 -3.83985,-1.75 z m -5.4082,4.97851 c 1.75977,-0.0602 4.24204,0.0274 7.49219,0.25781 9.96756,0.70667 12.44329,1.41003 11.32422,3.22071 -0.3628,0.58703 -1.1739,1.0092 -1.80274,0.9375 -0.62884,-0.0717 -5.24767,-0.68425 -10.26367,-1.35938 -5.01599,-0.67513 -9.5316,-1.26339 -10.0332,-1.30859 -0.50821,-0.0458 -0.44926,-0.54489 0.13281,-1.12696 0.3537,-0.3537 1.39062,-0.56089 3.15039,-0.62109 z m -12.29883,1.54492 c 0.57961,-0.10454 0.97286,-0.0994 1.11719,0.0449 0.97579,0.97578 1.16797,3.97216 0.85352,13.27539 l -0.20313,6 h -5.13672 c -3.74796,0 -5.99742,-0.58453 -8.3125,-2.16016 -4.11794,-2.80265 -6.94588,-6.66927 -6.23437,-8.52344 0.68064,-1.77373 13.85873,-7.90489 17.91601,-8.63672 z m 8.63867,4.27735 c 1.89802,0.0408 4.68858,0.29731 8.63672,0.77343 8.96046,1.08058 10.92508,1.6052 11.19141,2.99024 0.18312,0.95229 -0.22717,1.6284 -0.94727,1.5625 -5.08472,-0.4651 -22.47175,-3.01571 -22.80664,-3.3457 -0.2288,-0.22546 0.0586,-0.88477 0.63867,-1.46485 0.38313,-0.38312 1.3891,-0.55637 3.28711,-0.51562 z m -1.98437,6.52734 c 2.18754,6e-4 5.78422,0.39294 11.42383,1.17578 6.41614,0.89063 8.21829,1.4843 8.4707,2.79492 0.38622,2.00556 -0.55885,2.00397 -13.5,-0.0312 -6.48932,-1.02056 -9.36133,-1.86931 -9.36133,-2.76757 0,-0.78123 0.77926,-1.17248 2.9668,-1.17188 z m -1.75,6.84961 c 1.3754,-0.10341 3.77786,0.10351 7.16016,0.625 12.64151,1.94912 13.70312,2.18813 13.70312,3.06836 0,0.46924 -1.40314,0.80073 -3.11914,0.73633 -4.18736,-0.15707 -18.07681,-2.52019 -18.74609,-3.18946 -0.72155,-0.72154 -0.37345,-1.13682 1.00195,-1.24023 z m 4.26562,6.54492 c 2.95145,-0.19918 15.63868,2.16804 15.63868,2.91797 0,0.46382 -0.75569,0.79302 -1.67969,0.73242 -2.3687,-0.15546 -15.36947,-3.55519 -13.95899,-3.65039 z m 127.32032,70.00195 c 2.19865,0 30.61379,5.65482 31.16015,6.20118 0.89656,0.89656 -6.55573,0.34682 -19.48242,-1.4375 -6.86399,-0.94747 -12.58675,-1.75824 -12.71875,-1.80274 -0.91521,-0.30832 0.0173,-2.96094 1.04102,-2.96094 z m 53.82226,2.35547 c 1.10877,0.31444 13.03211,3.5184 26.4961,7.11914 l 24.48046,6.54688 0.59766,8.54883 c 0.32952,4.70216 0.83099,9.19628 1.11328,9.98828 0.34388,0.96479 -4.60681,6.17485 -15,15.78516 -8.5318,7.88913 -15.9427,14.44078 -16.4707,14.56054 -0.528,0.11975 -5.92801,-1.6365 -12,-3.90234 l -11.04102,-4.11914 -0.57226,-5.16211 c -0.31433,-2.83905 -0.2085,-5.8828 0.23437,-6.76563 1.03665,-2.06649 3.60631,-4.63476 4.63672,-4.63476 1.17865,0 3.85119,8.43945 3.92969,12.41015 l 0.0664,3.42969 1.72656,-3.83984 c 3.64344,-8.10437 15.25413,-16.73365 22.61914,-16.81055 1.59175,-0.0166 1.67428,-0.17968 0.48047,-0.95117 -0.792,-0.51183 -3.93426,-0.93731 -6.98242,-0.94531 l -5.54297,-0.0137 1.66601,-2.54296 1.66602,-2.54297 -2.36328,1.23828 c -1.30027,0.68152 -3.44368,1.99388 -4.76368,2.91601 -2.97432,2.07782 -16.02273,4.27282 -20.33007,3.41993 -1.7552,-0.34754 -4.12507,-1.41283 -5.26758,-2.36719 l -2.07813,-1.73438 5.3418,-15.10156 c 4.88817,-13.81981 5.51251,-15.05251 7.35742,-14.5293 z m -54.58008,4.86914 c 0.39485,-0.20567 1.0546,-0.18169 2.11524,0.004 3.15926,0.55286 26.50926,3.33008 27.99805,3.33008 0.57385,0 1.04296,0.43294 1.04296,0.96094 0,0.91665 -4.21058,0.98926 -17.75976,0.30664 -11.0685,-0.55763 -13.91992,-1.21669 -13.91992,-3.22071 0,-0.73809 0.12859,-1.17518 0.52343,-1.38086 z m -0.65234,7.37305 c 0.73728,-0.19521 2.11664,-0.0914 4.6875,0.16602 3.036,0.30399 10.27208,0.8653 16.08008,1.24804 9.5023,0.62618 10.08094,0.76366 5.76172,1.37696 -2.64,0.37486 -9.87609,0.72128 -16.08008,0.76758 -10.84267,0.0808 -11.28125,0.005 -11.28125,-1.93165 0,-0.93811 0.0948,-1.43174 0.83203,-1.62695 z m 28.17774,6.6582 c 1.11031,0.0592 1.71093,0.24175 1.71093,0.54297 0,0.53601 -4.54279,1.24925 -10.32031,1.6211 -5.67599,0.36532 -12.80385,0.92262 -15.83984,1.23828 -4.71241,0.48997 -5.51954,0.34412 -5.51954,-1.00195 10e-6,-1.35406 1.32135,-1.57799 9.35938,-1.58399 5.14799,-0.004 12.27585,-0.28254 15.83984,-0.61914 2.03875,-0.19254 3.65922,-0.25645 4.76954,-0.19727 z m -1.89649,5.73047 c 1.72487,-0.003 2.71941,0.0796 2.56445,0.24805 -0.30991,0.33691 -6.76386,1.47522 -14.34179,2.5293 -16.48059,2.29244 -17.35114,2.32318 -16.6875,0.59375 0.54852,-1.42943 5.04112,-2.07925 21.51172,-3.10743 2.77199,-0.17305 5.22825,-0.26064 6.95312,-0.26367 z m 0.91211,4.94922 c 0.4785,0.0649 0.77539,0.22607 0.77539,0.4668 0,0.48145 -4.86079,1.57881 -10.80078,2.43945 -19.14606,2.77404 -19.91992,2.84721 -19.91992,1.88672 0,-0.51049 5.72471,-1.65586 12.7207,-2.54687 6.99599,-0.89101 13.90738,-1.85428 15.35938,-2.13868 0.72599,-0.1422 1.38673,-0.17236 1.86523,-0.10742 z m 116.85156,9.8418 c 1.15174,-0.68374 1.26104,1.03834 0.73438,11.42969 l -0.61914,12.23242 -8.10547,10.7207 c -7.44518,9.84737 -14.65446,18.74895 -23.78711,29.36914 l -3.54297,4.11914 -10.85742,1.29492 c -14.17644,1.68923 -17.1853,1.62586 -25.42969,-0.53515 -17.88552,-4.68812 -35.08793,-17.44017 -49.19531,-36.4668 -9.21511,-12.42842 -9.13991,-11.91595 -1.64649,-11.31445 4.73565,0.38013 8.3216,1.47781 14.26954,4.37109 6.28542,3.05744 34.40761,13.85844 70.34374,27.01758 2.87693,1.05348 2.87738,1.05345 0.72071,-0.64063 -1.18743,-0.93273 -5.59633,-3.85609 -9.79688,-6.49609 -4.20053,-2.64 -7.65764,-5.05374 -7.68164,-5.36523 -0.024,-0.31149 1.79311,-1.16605 4.03711,-1.89844 2.77888,-0.90696 6.07028,-3.36385 10.32031,-7.70313 3.432,-3.50406 8.83201,-8.29059 12,-10.63671 5.50353,-4.07575 25.39248,-17.80978 28.23633,-19.49805 z M 187.9043,543.61133 c 0.68075,-0.20034 2.19921,-0.0479 5.21289,0.26367 14.19272,1.4672 25.14732,4.33404 35.36328,9.25586 18.61581,8.96865 39.72073,15.9897 49.38476,16.42969 2.39869,0.10921 4.36229,0.41568 4.36329,0.67968 10e-4,0.264 -1.28483,2.42147 -2.85938,4.79493 -3.86913,5.8323 -11.08761,13.13357 -16.27734,16.46484 -3.63547,2.33359 -5.20095,2.72891 -10.56055,2.66211 -3.46063,-0.0431 -10.61063,-1.12655 -15.89063,-2.40625 -5.27999,-1.27971 -14.56863,-3.3112 -20.64062,-4.51563 l -11.03906,-2.18945 -5.40821,-10.70508 c -4.61286,-9.13186 -9.14168,-20.18768 -11.83203,-28.88281 -0.33986,-1.09842 -0.49715,-1.65123 0.1836,-1.85156 z m 211.09961,8.4082 4.71484,6.4707 c 7.54117,10.3484 22.02504,24.32545 31.87891,30.76563 8.75434,5.72157 20.10229,10.74875 27.60156,12.22461 2.112,0.41565 3.19239,0.89343 2.40039,1.0625 -0.792,0.16907 -20.41637,2.47956 -43.61133,5.13476 -23.19496,2.65522 -42.3836,5.03791 -42.64062,5.29493 -0.25702,0.25703 24.33637,0.4824 54.65234,0.5 l 55.11914,0.0312 -6.23828,5.76953 c -18.6012,17.19923 -46.3976,38.79499 -54.34961,42.22656 -2.58053,1.11358 -8.36357,2.88232 -12.85156,3.93164 -6.47669,1.51429 -12.41664,1.97338 -28.79883,2.22461 -11.35199,0.17407 -22.152,0.14185 -24,-0.0723 -23.06007,-2.67186 -35.99884,-5.57566 -43.20117,-9.69726 -2.376,-1.35969 -17.69824,-10.29651 -34.05078,-19.85938 l -29.73243,-17.38672 6.69141,-0.72851 c 18.11371,-1.97258 34.88583,-11.20512 51.54102,-28.37109 8.71532,-8.98262 16.56815,-18.88188 22.33007,-28.14649 l 2.76563,-4.44531 11.58789,-2.01563 c 10.25407,-1.78339 19.16179,-2.72734 41.88867,-4.43945 z m -72.60352,10.49805 c 0,1.4019 -9.14557,15.29036 -14.82031,22.50586 -13.10797,16.66691 -27.57804,27.35535 -42.83789,31.64453 -2.87246,0.80738 -7.59796,1.68545 -10.50196,1.95117 l -5.27929,0.48242 -18.91602,-11.19531 c -10.40316,-6.15797 -18.82787,-11.27991 -18.7207,-11.38086 0.10717,-0.10095 7.32316,0.87623 16.03516,2.16992 10.16684,1.50974 17.73213,2.15311 21.12109,1.79688 7.04,-0.74001 37.48263,-6.92169 38.26367,-7.76953 0.33892,-0.36792 -4.99929,-0.42128 -11.86328,-0.11914 -11.77165,0.51818 -12.29039,0.46627 -9.12109,-0.91797 1.84799,-0.80715 8.54486,-6.51085 14.88085,-12.67578 l 11.51954,-11.20899 15.11914,-2.94726 c 8.31599,-1.62073 15.12109,-2.67188 15.12109,-2.33594 z m -63.83203,58.99023 c -1.2177,0.28066 0.31004,1.63493 4.07226,3.23242 14.49356,6.15417 38.31348,12.37932 65.03907,16.99805 13.82921,2.38999 20.94496,3.18889 25.43945,2.85742 3.432,-0.25312 18.0516,-1.53419 32.48633,-2.84765 14.43472,-1.31346 27.28533,-2.38867 28.55859,-2.38867 1.27326,0 2.31641,-0.49143 2.31641,-1.09376 0,-0.81247 -8.7342,-0.91819 -33.83985,-0.4082 l -33.83984,0.6875 -18.30469,-4.35547 c -21.02042,-5.00052 -39.11695,-8.45543 -55.61523,-10.61718 -6.33599,-0.83021 -12.70816,-1.71072 -14.16016,-1.95704 -1.03467,-0.17552 -1.74644,-0.20097 -2.15234,-0.10742 z" />
  </g>
</svg>
